<svg xmlns="http://www.w3.org/2000/svg" width="7.132" height="12.763" viewBox="0 0 7.132 12.763">
  <g id="arrow_ios" data-name="arrow ios" transform="translate(7.132 12.763) rotate(180)">
    <path id="Path_102" data-name="Path 102" d="M6.974,6.443a2.334,2.334,0,0,0-.266-.222c-.26-.2-.555-.425-.581-.749a.7.7,0,0,1,.227-.54.7.7,0,0,1,.557-.269c.325.019.547.316.743.577a2.264,2.264,0,0,0,.21.255C9.152,6.726,10.436,8,11.676,9.239l1.1,1.095c.31.309.479.523.479.774s-.164.458-.466.761L7.612,17.048c-.026.026-.051.056-.077.087a.616.616,0,0,1-.342.253,1.958,1.958,0,0,1-.347.035.771.771,0,0,1-.443-.114c-.257-.179-.088-.745-.068-.81a.815.815,0,0,1,.279-.351c.034-.029.069-.058.1-.087l.9-.905q1.81-1.814,3.627-3.617a1.837,1.837,0,0,1,.405-.287L10.426,10c-1.2-1.226-2.338-2.383-3.452-3.56" transform="translate(-6.126 -4.66)" fill="#1f3648"/>
  </g>
</svg>
