<svg id="Group_639" data-name="Group 639" xmlns="http://www.w3.org/2000/svg" xmlns:xlink="http://www.w3.org/1999/xlink" width="20.197" height="21.401" viewBox="0 0 20.197 21.401">
  <defs>
    <clipPath id="clip-path">
      <rect id="Rectangle_246" data-name="Rectangle 246" width="20.197" height="21.401" fill="none"/>
    </clipPath>
  </defs>
  <g id="Group_638" data-name="Group 638" clip-path="url(#clip-path)">
    <path id="Path_303" data-name="Path 303" d="M9.221,0h1.756c.45.041.9.077,1.35.125a14.951,14.951,0,0,1,4.591,1.17A6.659,6.659,0,0,1,19.47,3.13a2.844,2.844,0,0,1,.718,1.787q.015,5.694.01,11.389a3.1,3.1,0,0,1-.867,2.134,7.477,7.477,0,0,1-2.9,1.876,16.452,16.452,0,0,1-5.255,1.057,18.924,18.924,0,0,1-6.182-.643,9.294,9.294,0,0,1-3.712-1.877A3.319,3.319,0,0,1,0,16.306Q0,10.695,0,5.084A2.9,2.9,0,0,1,.453,3.523,5.546,5.546,0,0,1,2.663,1.6,14.207,14.207,0,0,1,7.85.126C8.306.076,8.764.042,9.221,0m.9,8.485a16.346,16.346,0,0,0,5.788-1A5.534,5.534,0,0,0,18.2,6.031a1.393,1.393,0,0,0,.149-2.043,3.91,3.91,0,0,0-1.321-1.1,13.2,13.2,0,0,0-5.354-1.461,17.952,17.952,0,0,0-4.5.164,11.961,11.961,0,0,0-4.007,1.3A3.82,3.82,0,0,0,1.754,4.13a1.18,1.18,0,0,0-.208,1.141,3.03,3.03,0,0,0,.473.777A5.557,5.557,0,0,0,4.272,7.475a16.342,16.342,0,0,0,5.85,1.01m8.615,2.721c-.05.03-.075.041-.1.058a9.75,9.75,0,0,1-3.647,1.69,19.807,19.807,0,0,1-9.1.165A10.45,10.45,0,0,1,1.537,11.25a.384.384,0,0,0-.087-.033c0,.394.008.769,0,1.144a1.848,1.848,0,0,0,.5,1.293,5.593,5.593,0,0,0,2.2,1.441,14.756,14.756,0,0,0,4.584,1.013,16.993,16.993,0,0,0,6.715-.776,6.95,6.95,0,0,0,2.514-1.364,2.018,2.018,0,0,0,.779-1.337c.033-.462.007-.929.007-1.423m-.027,3.968a8.521,8.521,0,0,1-2.141,1.219,15.984,15.984,0,0,1-4.727,1.052A19.765,19.765,0,0,1,5.4,16.967a10.165,10.165,0,0,1-3.848-1.745.38.38,0,0,0-.1-.035c0,.367.007.715,0,1.063a1.846,1.846,0,0,0,.5,1.291,5.583,5.583,0,0,0,2.2,1.438,14.837,14.837,0,0,0,4.648,1.015,17.008,17.008,0,0,0,6.613-.77,7.031,7.031,0,0,0,2.552-1.38,1.927,1.927,0,0,0,.742-1.176,13.984,13.984,0,0,0,.012-1.494M1.45,7.46c0,.344.008.635,0,.925a1.864,1.864,0,0,0,.5,1.313,4.916,4.916,0,0,0,1.628,1.181,13.8,13.8,0,0,0,4.78,1.241,17.624,17.624,0,0,0,5.6-.334,10.006,10.006,0,0,0,3.628-1.477,2.544,2.544,0,0,0,1.132-2.8c-.271.182-.533.377-.813.542a13.865,13.865,0,0,1-5.78,1.692,20.757,20.757,0,0,1-4.4-.036,15.976,15.976,0,0,1-3.753-.857A8.855,8.855,0,0,1,1.45,7.46" transform="translate(0)"/>
    <path id="Path_304" data-name="Path 304" d="M164.814,32.644a13.094,13.094,0,0,1,5.623,1.372,6.955,6.955,0,0,1,.707.442.668.668,0,0,1-.7,1.135c-.486-.253-.956-.542-1.458-.758a10.54,10.54,0,0,0-3.027-.742c-.366-.041-.735-.062-1.1-.091a.694.694,0,0,1-.7-.567.666.666,0,0,1,.66-.791" transform="translate(-154.181 -30.662)"/>
  </g>
</svg>
