<svg id="done_verify" xmlns="http://www.w3.org/2000/svg" width="160.207" height="160.543" viewBox="0 0 160.207 160.543">
  <path id="Path_21969" data-name="Path 21969" d="M80.839,0c4.328.506,8.684.847,12.981,1.548a76.738,76.738,0,0,1,38.027,17.779,78.122,78.122,0,0,1,26.374,43.705c4.33,19.883,1.6,38.853-8.42,56.571a77.915,77.915,0,0,1-44.792,36.8,77.486,77.486,0,0,1-57.134-2.825c-18.971-8.4-32.715-22.254-41.127-41.208A77.444,77.444,0,0,1,1.126,67.443C4.2,48.9,12.867,33.372,26.7,20.694c2.225-2.039,4.289-2.232,6.041-.55,1.8,1.726,1.689,4.049-.616,6.189A73.042,73.042,0,0,0,15.189,48.86c-9.347,19.97-9.978,40.263-1.12,60.462,8.445,19.258,22.868,32.594,42.814,39.282,22.785,7.64,44.479,4.565,64.31-9.025A69.346,69.346,0,0,0,150.8,94.709,71.932,71.932,0,0,0,101.539,11.46c-18.609-5.79-36.811-4.166-54.3,4.593-.782.392-1.537.845-2.342,1.18-2.275.949-4.461.266-5.418-1.645a3.888,3.888,0,0,1,1.906-5.331C45.963,8.1,50.567,5.93,55.328,4.239A69.8,69.8,0,0,1,76.685.369,22.594,22.594,0,0,0,79.262,0h1.577" transform="translate(0)" fill="#39db39"/>
  <path id="Path_21970" data-name="Path 21970" d="M86.939,108.462c2.224-2.4,4.065-4.5,6.033-6.477Q106.5,88.4,120.1,74.876c6.526-6.46,15.652-6.184,20.909.516a13.459,13.459,0,0,1,.139,16.332,29.736,29.736,0,0,1-2.639,2.918q-20.326,20.35-40.672,40.681c-7.222,7.219-14.708,7.21-21.948-.021-6.628-6.621-13.311-13.189-19.857-19.89-6.973-7.139-5.38-17.864,3.16-22.07a13.165,13.165,0,0,1,15.288,2.465c4.113,3.925,7.991,8.1,12.461,12.656m49.434-24.64c-.529-4.521-5.1-7.106-8.761-4.9a15.438,15.438,0,0,0-2.785,2.369q-17.1,17.058-34.168,34.141c-2.912,2.905-4.661,2.9-7.569.013-4.473-4.437-8.888-8.932-13.381-13.349-2.836-2.788-6.264-2.96-8.588-.558-2.259,2.336-2.1,5.7.589,8.416q10.245,10.36,20.6,20.605c2.985,2.951,6.063,3.037,8.995.122Q112.624,109.5,133.8,88.16c1.149-1.159,1.731-2.879,2.577-4.338" transform="translate(-17.651 -23.985)" fill="#39db39"/>
</svg>
