<svg id="lang_icons" xmlns="http://www.w3.org/2000/svg" width="24" height="24" viewBox="0 0 24 24">
  <path id="Path_122" data-name="Path 122" d="M0,0H24V24H0Z" fill="none"/>
  <g id="surface1" transform="translate(-31.25 -62.5)">
    <path id="Path_21985" data-name="Path 21985" d="M33.821,62.5a2.637,2.637,0,0,0-2.571,2.68V79.472a2.637,2.637,0,0,0,2.571,2.68h2.571V86.5l6.261-4.348H52.679a2.637,2.637,0,0,0,2.571-2.68V65.18a2.637,2.637,0,0,0-2.571-2.68Zm0,1.787H52.679a.865.865,0,0,1,.857.893V79.472a.865.865,0,0,1-.857.893H42.132l-4.024,2.8v-2.8H33.821a.865.865,0,0,1-.857-.893V65.18A.865.865,0,0,1,33.821,64.287Zm1.714,1.787a.873.873,0,0,0-.857.893v8.04h1.714V73.219h3.429v1.787h1.714V69.262a.912.912,0,0,0-.295-.677l-2.571-2.3a.851.851,0,0,0-.563-.216Zm.857,1.787h1.393l2.036,1.814v1.759H36.393Zm10.286,1.787v1.787H43.25v1.787h4.929a9.555,9.555,0,0,1-.65,1.061c-.121.174-.275.328-.408.5-.609-.586-1.071-1.11-1.071-1.11l-1.312,1.144s.475.544,1.111,1.172a4.557,4.557,0,0,1-2.6.81v1.787a6.265,6.265,0,0,0,3.944-1.424,6,6,0,0,0,3.556,1.424V76.792a4.567,4.567,0,0,1-2.3-.907c.147-.182.321-.356.449-.538a12.11,12.11,0,0,0,1.205-2.128h1.714V71.433H48.393V69.646Z" fill="#3cb49e"/>
  </g>
</svg>
