<svg id="logout_icons" xmlns="http://www.w3.org/2000/svg" width="24" height="24" viewBox="0 0 24 24">
  <path id="Path_21984" data-name="Path 21984" d="M12.923,20a10.977,10.977,0,0,0-9.7,6.234A2.132,2.132,0,0,1,4.145,26a2.18,2.18,0,0,1,1.1.3c.028.016.048.042.076.059A9.036,9.036,0,0,1,12.923,22c5.09,0,9.231,4.486,9.231,10s-4.141,10-9.231,10a9.034,9.034,0,0,1-7.6-4.361c-.029.018-.052.046-.081.063a2.178,2.178,0,0,1-1.1.3,2.139,2.139,0,0,1-.918-.234A10.977,10.977,0,0,0,12.923,44C19.031,44,24,38.617,24,32S19.031,20,12.923,20Zm-8.8,8a.444.444,0,0,0-.238.086A26.138,26.138,0,0,0,.1,31.682.54.54,0,0,0,0,32a.546.546,0,0,0,.1.318,26.246,26.246,0,0,0,3.782,3.6.436.436,0,0,0,.483.025.521.521,0,0,0,.249-.453V33.75s8.648-.295,8.816-.424A1.96,1.96,0,0,0,13.846,32a1.751,1.751,0,0,0-.415-1.25c-.167-.13-8.816-.5-8.816-.5V28.512a.52.52,0,0,0-.249-.451A.44.44,0,0,0,4.121,28Z" transform="translate(0 -20)" fill="rgba(218,117,58,0.88)"/>
</svg>
