<svg xmlns="http://www.w3.org/2000/svg" width="20" height="20" viewBox="0 0 20 20">
  <path id="icons8_user_male" d="M15.5,16.334V14.667a4.352,4.352,0,0,0,1.56-2.46c.3-.023.758-.293.895-1.363a.975.975,0,0,0-.4-1A4.41,4.41,0,0,0,18,8c0-2.023-.794-3.75-2.5-3.75A2.651,2.651,0,0,0,13,3C9.465,3,8,5.269,8,8a4.967,4.967,0,0,0,.44,1.845.976.976,0,0,0-.4,1c.137,1.069.6,1.34.9,1.363a4.352,4.352,0,0,0,1.56,2.46v1.667C9.667,18.834,3,17.167,3,23H23C23,17.167,16.333,18.834,15.5,16.334Z" transform="translate(-3 -3.001)"/>
</svg>
