<svg xmlns="http://www.w3.org/2000/svg" width="20.197" height="20.201" viewBox="0 0 20.197 20.201">
  <g id="terms_condtions" transform="translate(-11 24)">
    <g id="Group_625" data-name="Group 625" transform="translate(11 -24)">
      <path id="Path_299" data-name="Path 299" d="M29.519,26.506H16.038V12.682H29.519Zm-3.356,3.014H12.682V14.748h1.67V27.343a.839.839,0,0,0,.841.841H26.163v1.336ZM30.36,11H15.193a.839.839,0,0,0-.841.841v1.224H11.841a.839.839,0,0,0-.841.841V30.36a.839.839,0,0,0,.841.841H27a.839.839,0,0,0,.841-.841V28.188h2.511a.839.839,0,0,0,.841-.841V11.841A.833.833,0,0,0,30.36,11Z" transform="translate(-11 -11)" fill="#646464"/>
      <path id="Path_300" data-name="Path 300" d="M189.641,114.582h7.211a.841.841,0,0,0,0-1.682h-7.211a.841.841,0,0,0,0,1.682Z" transform="translate(-181.47 -108.699)" fill="#646464"/>
      <path id="Path_301" data-name="Path 301" d="M189.641,200.782h7.211a.841.841,0,0,0,0-1.682h-7.211a.841.841,0,0,0,0,1.682Z" transform="translate(-181.47 -191.345)" fill="#646464"/>
      <path id="Path_302" data-name="Path 302" d="M189.641,286.982h7.211a.841.841,0,0,0,0-1.682h-7.211a.841.841,0,0,0,0,1.682Z" transform="translate(-181.47 -273.991)" fill="#646464"/>
    </g>
  </g>
</svg>
