<svg id="terms_icons" xmlns="http://www.w3.org/2000/svg" width="24" height="24" viewBox="0 0 24 24">
  <path id="Path_124" data-name="Path 124" d="M0,0H24V24H0Z" fill="none"/>
  <path id="Path_125" data-name="Path 125" d="M12,10a2,2,0,1,0,2,2A2.006,2.006,0,0,0,12,10Zm7-7H5A2,2,0,0,0,3,5V19a2,2,0,0,0,2,2H19a2,2,0,0,0,2-2V5A2,2,0,0,0,19,3Zm-1.75,9a5.061,5.061,0,0,1-.05.68l1.48,1.16a.353.353,0,0,1,.08.45l-1.4,2.42a.354.354,0,0,1-.43.15l-1.74-.7a5.363,5.363,0,0,1-1.18.69l-.26,1.85a.363.363,0,0,1-.35.3H10.6a.364.364,0,0,1-.35-.29l-.26-1.85a5.142,5.142,0,0,1-1.18-.69l-1.74.7a.354.354,0,0,1-.43-.15L5.24,14.3a.353.353,0,0,1,.08-.45L6.8,12.69A5.337,5.337,0,0,1,6.75,12a5.061,5.061,0,0,1,.05-.68L5.32,10.16a.353.353,0,0,1-.08-.45l1.4-2.42a.354.354,0,0,1,.43-.15l1.74.7a5.363,5.363,0,0,1,1.18-.69l.26-1.85A.363.363,0,0,1,10.6,5h2.8a.364.364,0,0,1,.35.29l.26,1.85a5.142,5.142,0,0,1,1.18.69l1.74-.7a.354.354,0,0,1,.43.15l1.4,2.42a.353.353,0,0,1-.08.45L17.2,11.31a5.337,5.337,0,0,1,.05.69Z" fill="#3cb49e"/>
</svg>
