<svg id="verify" xmlns="http://www.w3.org/2000/svg" xmlns:xlink="http://www.w3.org/1999/xlink" width="21.533" height="20.635" viewBox="0 0 21.533 20.635">
  <defs>
    <clipPath id="clip-path">
      <rect id="Rectangle_249" data-name="Rectangle 249" width="21.533" height="20.635" fill="none"/>
    </clipPath>
  </defs>
  <g id="Group_644" data-name="Group 644" clip-path="url(#clip-path)">
    <path id="Path_312" data-name="Path 312" d="M21.531,10.088a2.27,2.27,0,0,0-.6-1.056c-.161-.161-.332-.317-.5-.467l-.008-.007c-.107-.1-.214-.193-.322-.288-.155-.137-.314-.279-.468-.422a.787.787,0,0,1-.246-.775c.024-.12.049-.239.074-.359.042-.2.086-.413.126-.621.013-.07.028-.139.042-.209a6.838,6.838,0,0,0,.115-.68,1.539,1.539,0,0,0-1.352-1.848c-.449-.088-.912-.132-1.361-.175l-.383-.037a.964.964,0,0,1-.862-.612l-.069-.164c-.091-.218-.185-.443-.29-.66l-.091-.191a5.929,5.929,0,0,0-.426-.8A1.471,1.471,0,0,0,13.026.134,6.025,6.025,0,0,0,12.3.492l-.158.086c-.16.087-.321.179-.475.269s-.322.186-.485.274a.838.838,0,0,1-.839,0C10.211,1.048,10.079.971,9.95.9,9.795.806,9.634.713,9.472.629L9.246.509A6.435,6.435,0,0,0,8.359.091,1.39,1.39,0,0,0,6.764.539a2.943,2.943,0,0,0-.409.626c-.2.4-.373.821-.546,1.225l-.055.13a.972.972,0,0,1-.874.625l-.1.009c-.48.043-.977.088-1.463.159A1.592,1.592,0,0,0,1.8,5.252,12.372,12.372,0,0,0,2.11,6.813a1.086,1.086,0,0,1-.4,1.229c-.129.1-.253.211-.373.318-.076.068-.153.135-.23.2A3.149,3.149,0,0,0,0,10.044l0,.012v.471l0,.019a2.764,2.764,0,0,0,.966,1.408c.064.056.128.111.193.166.082.07.167.142.248.215.167.15.344.311.516.48a.763.763,0,0,1,.222.726c-.032.164-.065.327-.1.491s-.07.339-.1.509c-.014.071-.028.142-.043.213a6.8,6.8,0,0,0-.114.676,1.552,1.552,0,0,0,1.351,1.85c.435.085.883.128,1.317.17.149.014.3.029.447.045a.934.934,0,0,1,.832.588l.064.152c.1.235.2.477.314.71l.092.19a5.884,5.884,0,0,0,.466.844,1.429,1.429,0,0,0,1.751.551,5.547,5.547,0,0,0,.8-.377l.037-.02c.195-.1.389-.218.577-.327.167-.1.339-.2.51-.291a.832.832,0,0,1,.839,0c.148.08.3.166.44.25.169.1.345.2.522.294l.15.079a6.225,6.225,0,0,0,.873.407,1.58,1.58,0,0,0,.516.092,1.413,1.413,0,0,0,1.094-.551,2.889,2.889,0,0,0,.4-.609c.2-.41.38-.835.556-1.246l.054-.127a.961.961,0,0,1,.862-.61l.159-.015c.452-.042.92-.086,1.378-.15a1.609,1.609,0,0,0,1.549-1.959,11.277,11.277,0,0,0-.311-1.54,1.1,1.1,0,0,1,.411-1.244c.192-.153.377-.317.557-.476l.188-.166a2.723,2.723,0,0,0,.952-1.395l0-.437ZM18.3,14.054c.1.457.2.924.292,1.362a1.35,1.35,0,0,1,.02.273c0,.27-.075.372-.3.42-.28.059-.571.1-.853.13-.118.015-.237.029-.355.046-.1.014-.2.026-.3.038-.207.025-.421.051-.63.092a1.736,1.736,0,0,0-1.251.9c-.133.251-.251.515-.365.769-.073.163-.149.332-.228.5a6.233,6.233,0,0,1-.378.7.323.323,0,0,1-.459.148,5.335,5.335,0,0,1-.663-.32c-.165-.091-.331-.189-.491-.283s-.356-.21-.538-.309a2.03,2.03,0,0,0-2.051,0c-.166.091-.332.188-.492.282s-.309.182-.465.268a6.451,6.451,0,0,1-.717.354.335.335,0,0,1-.49-.158A5.34,5.34,0,0,1,7.22,18.6c-.1-.224-.2-.456-.3-.681l-.106-.253a2.139,2.139,0,0,0-1.928-1.345l-.025,0c-.474-.04-.964-.082-1.438-.162a.655.655,0,0,1-.449-.2.68.68,0,0,1-.038-.506c.053-.3.117-.6.179-.891.052-.242.1-.492.152-.74a1.944,1.944,0,0,0-.587-1.882c-.164-.154-.334-.307-.5-.454L1.97,11.3l-.154-.136c-.1-.09-.21-.184-.307-.281-.246-.244-.352-.412-.352-.561s.1-.312.344-.558c.076-.077.159-.151.239-.223L1.8,9.48c.1-.088.2-.174.293-.26.207-.182.421-.37.621-.568a1.97,1.97,0,0,0,.632-1.43V7.213l0-.009q-.047-.226-.095-.451c-.076-.358-.154-.729-.225-1.094a5.271,5.271,0,0,1-.1-.729c-.012-.245.066-.354.29-.4.281-.06.574-.1.857-.134L4.4,4.35c.11-.015.22-.028.33-.042.211-.025.43-.051.643-.093a1.724,1.724,0,0,0,1.236-.892c.146-.274.274-.561.4-.838.063-.14.128-.286.195-.427l.057-.122A4.979,4.979,0,0,1,7.5,1.47c.2-.337.337-.381.692-.224.16.071.318.16.471.246l.184.1c.121.066.241.134.361.2.251.142.511.289.776.416a1.749,1.749,0,0,0,1.544.008c.268-.126.531-.273.785-.416.112-.063.224-.125.337-.187.074-.04.147-.081.22-.123.153-.087.31-.177.471-.248.357-.159.492-.115.69.222a6.07,6.07,0,0,1,.291.59l.059.132c.1.222.2.451.291.672l.038.09a2.15,2.15,0,0,0,1.944,1.356c.453.038.967.081,1.462.165a.641.641,0,0,1,.44.2.666.666,0,0,1,.039.5c-.051.293-.115.589-.176.876-.054.254-.111.516-.158.776a1.931,1.931,0,0,0,.583,1.864c.168.158.343.313.513.463.133.117.27.239.4.36a4.89,4.89,0,0,1,.434.435c.253.3.251.454-.006.757a4.631,4.631,0,0,1-.419.42c-.236.214-.482.429-.752.657a2.151,2.151,0,0,0-.718,2.279" transform="translate(0 0)" fill="#231f20"/>
    <path id="Path_313" data-name="Path 313" d="M110.693,119.721a1.752,1.752,0,0,0-1.646.47c-.528.517-1.057,1.049-1.569,1.564l-.617.619c-.216.217-.432.434-.652.656l-.24.242-.353-.356c-.317-.321-.617-.623-.926-.93a1.7,1.7,0,1,0-2.41,2.4c.979.99,1.739,1.75,2.465,2.464a1.735,1.735,0,0,0,1.22.528,1.772,1.772,0,0,0,1.245-.543c.287-.283.576-.573.856-.853l.355-.356.752-.753,2.256-2.258a1.709,1.709,0,0,0-.738-2.894m-6.8,3.107c.372.358.742.73,1.1,1.09l.481.482a.6.6,0,0,0,.992-.006l.882-.882c.8-.8,1.633-1.634,2.454-2.446a.876.876,0,0,1,.4-.23.474.474,0,0,1,.53.248.518.518,0,0,1-.017.6,1.176,1.176,0,0,1-.149.169l-.005.005q-2.049,2.051-4.1,4.1a.59.59,0,0,1-.979,0l-.729-.729q-.83-.83-1.659-1.661a.536.536,0,0,1-.134-.631.575.575,0,0,1,.583-.326l.068.035a1.139,1.139,0,0,1,.283.18" transform="translate(-96.095 -113.014)" fill="#231f20"/>
  </g>
</svg>
